# xmcd
#
# Track frame offsets: 
#        150
#        11387
#        25682
#        36580
#        57000
#        70235
#        78437
#        91962
#        106342
#        115237
#        125055
#        138312
#        151335
#        161065
#        171515
#        184667
#        195552
#        207512
#        223537
#        236795
#
# Disc length: 3252 seconds
#
# Revision: 2
# Processed by: cddbd v1.5.2PL0 Copyright (c) Steve Scherf et al.
# Submitted via: ExactAudioCopy v1.3
#
DISCID=1a0cb214
DTITLE=Various Artist - Mountain Music Collection Vol. 1 "Wild And Re
DTITLE=ckless Men"
DYEAR=1994
DGENRE=Bluegrass
TTITLE0=Jack youngblood - Hitchhikers Blues
TTITLE1=Bluegrass Cardinals - Darlin' Corey
TTITLE2=Mainer and Morris - Train Carry My Girl Back home
TTITLE3=Lester Flatt And The Nashville Grass - House Of The Rising Sun
TTITLE4=Mac Wiseman - Don't Let Your Deal Go Down
TTITLE5=Grandpa Jones - Waiting For A Train
TTITLE6=Riley Puckett - Chain Gang Blues
TTITLE7=Mac Wiseman - Little Blossom
TTITLE8=Morris Brothers - Let Me Be Your Salty Dog
TTITLE9=Grandpa Jones - The All Go Hungry Hash House
TTITLE10=Osborne Bros. - The Prisoner's Song
TTITLE11=Carter Family - The Rambling Boy
TTITLE12=Red Herron, Merle Travis and Joe Maphis - Give The Fiddler A Dr
TTITLE12=am
TTITLE13=Osborne Brothers - Jesse James
TTITLE14=Tex Ritter - Samuel Hall
TTITLE15=Grandpa Jones - Down The Old Plank Road
TTITLE16=Mac Wieman - Girl In The Blue Velvet Band
TTITLE17=Kirk And Sam McGee - Brown's Ferry Blues
TTITLE18=Gid Tanner and The Skillet Lickers - Wreck Of The Old 97
TTITLE19=Ramona Jones - Whiskey Before Breakfast
EXTD=
EXTT0=
EXTT1=
EXTT2=
EXTT3=
EXTT4=
EXTT5=
EXTT6=
EXTT7=
EXTT8=
EXTT9=
EXTT10=
EXTT11=
EXTT12=
EXTT13=
EXTT14=
EXTT15=
EXTT16=
EXTT17=
EXTT18=
EXTT19=
PLAYORDER=
